<mxfile host="Electron" modified="2023-05-30T15:35:11.161Z" agent="Mozilla/5.0 (Windows NT 10.0; Win64; x64) AppleWebKit/537.36 (KHTML, like Gecko) draw.io/21.2.8 Chrome/112.0.5615.165 Electron/24.2.0 Safari/537.36" version="21.2.8" etag="9nUhqa4oTP6Ca8uxNOVq" type="device">
  <diagram id="eUjFFfpRQZy0vTMYFvyY" name="Page-1">
    <mxGraphModel dx="828" dy="656" grid="1" gridSize="10" guides="1" tooltips="1" connect="1" arrows="1" fold="1" page="1" pageScale="1" pageWidth="1100" pageHeight="1700" math="0" shadow="0">
      <root>
        <mxCell id="0" />
        <mxCell id="1" parent="0" />
        <mxCell id="2" value="" style="edgeStyle=none;html=1;entryX=0.978;entryY=-0.025;entryDx=0;entryDy=0;entryPerimeter=0;" parent="1" source="8" target="9" edge="1">
          <mxGeometry relative="1" as="geometry">
            <Array as="points">
              <mxPoint x="280" y="10" />
            </Array>
          </mxGeometry>
        </mxCell>
        <mxCell id="3" value="" style="edgeStyle=none;html=1;entryX=-0.031;entryY=0.05;entryDx=0;entryDy=0;entryPerimeter=0;" parent="1" source="8" target="19" edge="1">
          <mxGeometry relative="1" as="geometry">
            <Array as="points">
              <mxPoint x="590" y="30" />
            </Array>
          </mxGeometry>
        </mxCell>
        <mxCell id="4" value="" style="edgeStyle=none;html=1;entryX=0.611;entryY=-0.034;entryDx=0;entryDy=0;entryPerimeter=0;" parent="1" source="8" target="13" edge="1">
          <mxGeometry relative="1" as="geometry" />
        </mxCell>
        <mxCell id="5" value="" style="edgeStyle=none;html=1;entryX=0.921;entryY=-0.057;entryDx=0;entryDy=0;entryPerimeter=0;" parent="1" source="8" target="11" edge="1">
          <mxGeometry relative="1" as="geometry">
            <mxPoint x="220" y="290" as="targetPoint" />
            <Array as="points">
              <mxPoint x="260" y="140" />
            </Array>
          </mxGeometry>
        </mxCell>
        <mxCell id="6" value="" style="edgeStyle=none;html=1;entryX=0.267;entryY=-0.03;entryDx=0;entryDy=0;entryPerimeter=0;" parent="1" source="8" target="15" edge="1">
          <mxGeometry relative="1" as="geometry">
            <mxPoint x="520" y="410" as="targetPoint" />
            <Array as="points">
              <mxPoint x="510" y="150" />
              <mxPoint x="540" y="270" />
            </Array>
          </mxGeometry>
        </mxCell>
        <mxCell id="7" value="" style="edgeStyle=none;html=1;entryX=0.039;entryY=-0.041;entryDx=0;entryDy=0;entryPerimeter=0;" parent="1" source="8" target="17" edge="1">
          <mxGeometry relative="1" as="geometry">
            <Array as="points">
              <mxPoint x="550" y="110" />
            </Array>
          </mxGeometry>
        </mxCell>
        <mxCell id="8" value="&lt;br&gt;Azure Database for PostgreSQL&lt;br&gt;Database Name:&lt;br&gt;tools_store" style="ellipse;shape=cloud;whiteSpace=wrap;html=1;align=center;" parent="1" vertex="1">
          <mxGeometry x="290" width="250" height="120" as="geometry" />
        </mxCell>
        <mxCell id="9" value="users" style="swimlane;childLayout=stackLayout;horizontal=1;startSize=30;horizontalStack=0;rounded=1;fontSize=14;fontStyle=0;strokeWidth=2;resizeParent=0;resizeLast=1;shadow=0;dashed=0;align=center;" parent="1" vertex="1">
          <mxGeometry x="40" y="80" width="200" height="220" as="geometry" />
        </mxCell>
        <mxCell id="10" value="+ id SERIAL PRIMARY KEY&#xa;+ first_name VARCHAR(255)&#xa;+ last_name VARCHAR(255)&#xa;+ email VARCHAR(255)&#xa;+ phone VARCHAR(20)&#xa;+ address VARCHAR(255)&#xa;+ city VARCHAR(255)&#xa;+ state_province VARCHAR(255)&#xa;+ country VARCHAR(255)&#xa;+ postal_zip VARCHAR(255)&#xa;+ password_hash VARCHAR(255)&#xa;+ created_at TIMESTAMP" style="align=left;strokeColor=none;fillColor=none;spacingLeft=4;fontSize=12;verticalAlign=top;resizable=0;rotatable=0;part=1;" parent="9" vertex="1">
          <mxGeometry y="30" width="200" height="190" as="geometry" />
        </mxCell>
        <mxCell id="11" value="user_sessions" style="swimlane;childLayout=stackLayout;horizontal=1;startSize=30;horizontalStack=0;rounded=1;fontSize=14;fontStyle=0;strokeWidth=2;resizeParent=0;resizeLast=1;shadow=0;dashed=0;align=center;" parent="1" vertex="1">
          <mxGeometry x="70" y="610" width="210" height="130" as="geometry" />
        </mxCell>
        <mxCell id="12" value="+ id SERIAL PRIMARY KEY&#xa;+ user_email VARCHAR(255)&#xa;    - FOREIGN KEY to users (email)&#xa;+ session_id VARCHAR(255)&#xa;+ expires_at TIMESTAMP&#xa;+ created_at TIMESTAMP" style="align=left;strokeColor=none;fillColor=none;spacingLeft=4;fontSize=12;verticalAlign=top;resizable=0;rotatable=0;part=1;" parent="11" vertex="1">
          <mxGeometry y="30" width="210" height="100" as="geometry" />
        </mxCell>
        <mxCell id="13" value="products" style="swimlane;childLayout=stackLayout;horizontal=1;startSize=30;horizontalStack=0;rounded=1;fontSize=14;fontStyle=0;strokeWidth=2;resizeParent=0;resizeLast=1;shadow=0;dashed=0;align=center;" parent="1" vertex="1">
          <mxGeometry x="300" y="210" width="190" height="230" as="geometry" />
        </mxCell>
        <mxCell id="14" value="+ id SERIAL PRIMARY KEY&#xa;+ name VARCHAR(255)&#xa;+ description TEXT&#xa;+ product_id VARCHAR(255)&#xa;+ brand_name VARCHAR(255)&#xa;+ category VARCHAR(255)&#xa;+ type VARCHAR(255)&#xa;+ color VARCHAR(255)&#xa;+ image_url VARCHAR(255)&#xa;+ quantity INTEGER&#xa;+ cost DECIMAL(10, 2)&#xa;+ price DECIMAL(10, 2)&#xa;+ created_at TIMESTAMP" style="align=left;strokeColor=none;fillColor=none;spacingLeft=4;fontSize=12;verticalAlign=top;resizable=0;rotatable=0;part=1;" parent="13" vertex="1">
          <mxGeometry y="30" width="190" height="200" as="geometry" />
        </mxCell>
        <mxCell id="15" value="orders" style="swimlane;childLayout=stackLayout;horizontal=1;startSize=30;horizontalStack=0;rounded=1;fontSize=14;fontStyle=0;strokeWidth=2;resizeParent=0;resizeLast=1;shadow=0;dashed=0;align=center;" parent="1" vertex="1">
          <mxGeometry x="550" y="780" width="210" height="220" as="geometry" />
        </mxCell>
        <mxCell id="16" value="+ id SERIAL PRIMARY KEY&#xa;+ order_number VARCHAR(255)&#xa;+ user_email VARCHAR(255)&#xa;    - FOREIGN KEY to users (id)&#xa;+ product_id VARCHAR(255)&#xa;    - FOREIGN KEY to products (id)&#xa;+ quantity INTEGER&#xa;+ price DECIMAL(10, 2)&#xa;+ total_price DECIMAL(10, 2)&#xa;+ discount DECIMAL(10, 2)&#xa;+ created_at TIMESTAMP&#xa;+ updated_at TIMESTAMP" style="align=left;strokeColor=none;fillColor=none;spacingLeft=4;fontSize=12;verticalAlign=top;resizable=0;rotatable=0;part=1;" parent="15" vertex="1">
          <mxGeometry y="30" width="210" height="190" as="geometry" />
        </mxCell>
        <mxCell id="17" value="shipments" style="swimlane;childLayout=stackLayout;horizontal=1;startSize=30;horizontalStack=0;rounded=1;fontSize=14;fontStyle=0;strokeWidth=2;resizeParent=0;resizeLast=1;shadow=0;dashed=0;align=center;" parent="1" vertex="1">
          <mxGeometry x="620" y="395" width="220" height="190" as="geometry" />
        </mxCell>
        <mxCell id="18" value="+ id SERIAL PRIMARY KEY&#xa;+ order_id VARCHAR(255)&#xa;    - FOREIGN KEY to orders (id)&#xa;+ customer_id VARCHAR(255)&#xa;    - FOREIGN KEY to customers (id)&#xa;+ tracking_number VARCHAR(255)&#xa;+ carrier VARCHAR(255)&#xa;+ status TEXT&#xa;+ created_at TIMESTAMP&#xa;+ updated_at TIMESTAMP" style="align=left;strokeColor=none;fillColor=none;spacingLeft=4;fontSize=12;verticalAlign=top;resizable=0;rotatable=0;part=1;" parent="17" vertex="1">
          <mxGeometry y="30" width="220" height="160" as="geometry" />
        </mxCell>
        <mxCell id="19" value="customers" style="swimlane;childLayout=stackLayout;horizontal=1;startSize=30;horizontalStack=0;rounded=1;fontSize=14;fontStyle=0;strokeWidth=2;resizeParent=0;resizeLast=1;shadow=0;dashed=0;align=center;" parent="1" vertex="1">
          <mxGeometry x="620" y="30" width="220" height="230" as="geometry" />
        </mxCell>
        <mxCell id="20" value="+ id SERIAL PRIMARY KEY&#xa;    - FOREIGN KEY to users (id)&#xa;+ first_name VARCHAR(255)&#xa;+ last_name VARCHAR(255)&#xa;+ email VARCHAR(255)&#xa;+ phone VARCHAR(20)&#xa;+ address VARCHAR(255)&#xa;+ city VARCHAR(255)&#xa;+ state_province VARCHAR(255)&#xa;+ country VARCHAR(255)&#xa;+ postal_zip VARCHAR(255)&#xa;+ orders_count INTEGER&#xa;+ created_at TIMESTAMP" style="align=left;strokeColor=none;fillColor=none;spacingLeft=4;fontSize=12;verticalAlign=top;resizable=0;rotatable=0;part=1;" parent="19" vertex="1">
          <mxGeometry y="30" width="220" height="200" as="geometry" />
        </mxCell>
        <mxCell id="21" value="" style="edgeStyle=entityRelationEdgeStyle;fontSize=12;html=1;endArrow=ERmandOne;startArrow=none;exitX=0.983;exitY=0.425;exitDx=0;exitDy=0;exitPerimeter=0;entryX=0;entryY=0.5;entryDx=0;entryDy=0;" parent="1" source="23" target="20" edge="1">
          <mxGeometry width="100" height="100" relative="1" as="geometry">
            <mxPoint x="240" y="310" as="sourcePoint" />
            <mxPoint x="340" y="210" as="targetPoint" />
          </mxGeometry>
        </mxCell>
        <mxCell id="22" value="" style="fontSize=12;html=1;endArrow=none;startArrow=ERmandOne;entryX=0;entryY=0.5;entryDx=0;entryDy=0;" parent="1" target="23" edge="1">
          <mxGeometry width="100" height="100" relative="1" as="geometry">
            <mxPoint x="240" y="165" as="sourcePoint" />
            <mxPoint x="620" y="180" as="targetPoint" />
          </mxGeometry>
        </mxCell>
        <mxCell id="23" value="One-To-One" style="shape=rhombus;perimeter=rhombusPerimeter;whiteSpace=wrap;html=1;align=center;" parent="1" vertex="1">
          <mxGeometry x="300" y="140" width="100" height="50" as="geometry" />
        </mxCell>
        <mxCell id="24" value="" style="fontSize=12;html=1;endArrow=ERoneToMany;startArrow=none;" parent="1" source="26" edge="1">
          <mxGeometry width="100" height="100" relative="1" as="geometry">
            <mxPoint x="20" y="500" as="sourcePoint" />
            <mxPoint x="90" y="610" as="targetPoint" />
          </mxGeometry>
        </mxCell>
        <mxCell id="25" value="" style="fontSize=12;html=1;endArrow=none;exitX=0.25;exitY=1;exitDx=0;exitDy=0;" parent="1" source="10" target="26" edge="1">
          <mxGeometry width="100" height="100" relative="1" as="geometry">
            <mxPoint x="90" y="300" as="sourcePoint" />
            <mxPoint x="70" y="690" as="targetPoint" />
          </mxGeometry>
        </mxCell>
        <mxCell id="26" value="One-to-Many" style="shape=rhombus;perimeter=rhombusPerimeter;whiteSpace=wrap;html=1;align=center;" parent="1" vertex="1">
          <mxGeometry x="40" y="410" width="100" height="60" as="geometry" />
        </mxCell>
        <mxCell id="27" value="" style="fontSize=12;html=1;endArrow=ERoneToMany;startArrow=none;exitX=0.5;exitY=1;exitDx=0;exitDy=0;" parent="1" source="29" edge="1">
          <mxGeometry width="100" height="100" relative="1" as="geometry">
            <mxPoint x="810" y="685" as="sourcePoint" />
            <mxPoint x="730" y="780" as="targetPoint" />
          </mxGeometry>
        </mxCell>
        <mxCell id="28" value="" style="fontSize=12;html=1;endArrow=none;entryX=0.5;entryY=0;entryDx=0;entryDy=0;exitX=0.5;exitY=1;exitDx=0;exitDy=0;" parent="1" source="18" target="29" edge="1">
          <mxGeometry width="100" height="100" relative="1" as="geometry">
            <mxPoint x="760" y="540" as="sourcePoint" />
            <mxPoint x="700" y="590" as="targetPoint" />
          </mxGeometry>
        </mxCell>
        <mxCell id="29" value="One-to-Many" style="shape=rhombus;perimeter=rhombusPerimeter;whiteSpace=wrap;html=1;align=center;" parent="1" vertex="1">
          <mxGeometry x="675" y="660" width="110" height="50" as="geometry" />
        </mxCell>
        <mxCell id="30" value="" style="fontSize=12;html=1;endArrow=ERoneToMany;startArrow=none;entryX=0.309;entryY=0.005;entryDx=0;entryDy=0;entryPerimeter=0;" parent="1" source="32" target="17" edge="1">
          <mxGeometry width="100" height="100" relative="1" as="geometry">
            <mxPoint x="370" y="280" as="sourcePoint" />
            <mxPoint x="690" y="390" as="targetPoint" />
          </mxGeometry>
        </mxCell>
        <mxCell id="31" value="" style="fontSize=12;html=1;endArrow=none;exitX=0.324;exitY=0.993;exitDx=0;exitDy=0;exitPerimeter=0;" parent="1" source="20" target="32" edge="1">
          <mxGeometry width="100" height="100" relative="1" as="geometry">
            <mxPoint x="691.28" y="258.6" as="sourcePoint" />
            <mxPoint x="620" y="440" as="targetPoint" />
          </mxGeometry>
        </mxCell>
        <mxCell id="32" value="One-to-Many" style="shape=rhombus;perimeter=rhombusPerimeter;whiteSpace=wrap;html=1;align=center;" parent="1" vertex="1">
          <mxGeometry x="630" y="295" width="120" height="60" as="geometry" />
        </mxCell>
        <mxCell id="33" value="" style="fontSize=12;html=1;endArrow=ERmany;startArrow=none;exitX=0.5;exitY=0;exitDx=0;exitDy=0;entryX=0.842;entryY=1;entryDx=0;entryDy=0;entryPerimeter=0;" parent="1" source="35" target="14" edge="1">
          <mxGeometry width="100" height="100" relative="1" as="geometry">
            <mxPoint x="350" y="660" as="sourcePoint" />
            <mxPoint x="400" y="450" as="targetPoint" />
          </mxGeometry>
        </mxCell>
        <mxCell id="34" value="" style="fontSize=12;html=1;endArrow=none;startArrow=ERmany;entryX=0.5;entryY=1;entryDx=0;entryDy=0;edgeStyle=orthogonalEdgeStyle;" parent="1" target="35" edge="1">
          <mxGeometry width="100" height="100" relative="1" as="geometry">
            <mxPoint x="550" y="830" as="sourcePoint" />
            <mxPoint x="400" y="450" as="targetPoint" />
            <Array as="points">
              <mxPoint x="460" y="830" />
            </Array>
          </mxGeometry>
        </mxCell>
        <mxCell id="35" value="One-to-Many" style="shape=rhombus;perimeter=rhombusPerimeter;whiteSpace=wrap;html=1;align=center;" parent="1" vertex="1">
          <mxGeometry x="400" y="610" width="120" height="60" as="geometry" />
        </mxCell>
        <object label="" id="36">
          <mxCell style="edgeStyle=entityRelationEdgeStyle;fontSize=12;html=1;endArrow=ERmany;startArrow=none;" parent="1" source="38" edge="1">
            <mxGeometry width="100" height="100" relative="1" as="geometry">
              <mxPoint x="190" y="305.86206896551727" as="sourcePoint" />
              <mxPoint x="550" y="880" as="targetPoint" />
            </mxGeometry>
          </mxCell>
        </object>
        <mxCell id="37" value="" style="fontSize=12;html=1;endArrow=none;startArrow=ERmany;entryX=0.5;entryY=0;entryDx=0;entryDy=0;edgeStyle=elbowEdgeStyle;elbow=vertical;exitX=0.75;exitY=1;exitDx=0;exitDy=0;" parent="1" source="10" target="38" edge="1">
          <mxGeometry width="100" height="100" relative="1" as="geometry">
            <mxPoint x="141" y="300" as="sourcePoint" />
            <mxPoint x="544.54" y="904.05" as="targetPoint" />
            <Array as="points">
              <mxPoint x="300" y="470" />
              <mxPoint x="300" y="480" />
            </Array>
          </mxGeometry>
        </mxCell>
        <mxCell id="38" value="One-to-Many" style="shape=rhombus;perimeter=rhombusPerimeter;whiteSpace=wrap;html=1;align=center;" parent="1" vertex="1">
          <mxGeometry x="320" y="850" width="120" height="60" as="geometry" />
        </mxCell>
      </root>
    </mxGraphModel>
  </diagram>
</mxfile>
